<?xml version="1.0" encoding="UTF-8"?>
<svg id="Laag_1" xmlns="http://www.w3.org/2000/svg" version="1.1" viewBox="0 0 419.53 595.28">
  <!-- Generator: Adobe Illustrator 30.2.1, SVG Export Plug-In . SVG Version: 2.1.1 Build 1)  -->
  <defs>
    <style>
      .st0 {
        fill: #040405;
      }
    </style>
  </defs>
  <circle class="st0" cx="227.56" cy="312.28" r="6.48" transform="translate(-21.56 16.92) rotate(-4.07)"/>
  <circle class="st0" cx="246.53" cy="264.02" r="6.48"/>
  <path class="st0" d="M260.78,216.68h-102.03c-16.54,0-29.95,13.41-29.95,29.95v102.03c0,16.54,13.41,29.95,29.95,29.95h102.03c16.54,0,29.95-13.41,29.95-29.95v-102.03c0-16.54-13.41-29.95-29.95-29.95ZM257.08,276.34c-7.29,6.2-12.19,15.12-13.36,24.63-.75,4.25.11,8.56-.06,12.83-.36,4.22-2.48,8.22-5.71,10.94-7.42,6.49-10.21,13.11-13.8,22.75h-27.98l-39.3-99.63h27.84l26.88,68.14c-.95-5.91.8-12.27,5.56-16.13,9.71-8.26,14.82-21.36,13.27-34.02-1.55-11.82,10.95-21.49,22.04-16.89,11.25,4.17,13.82,19.79,4.63,27.37Z"/>
</svg>